<svg width="22" height="22" viewBox="0 0 22 22" fill="none" xmlns="http://www.w3.org/2000/svg">
<path d="M3.31 13.01C2.3 13.11 1.5 13.97 1.5 15C1.5 15.55 1.72 16.05 2.09 16.41C2.45 16.78 2.95 17 3.5 17H8.5V18.5C8.5 19.88 9.62 21 11 21C12.38 21 13.5 19.88 13.5 18.5V17H18.39C19.45 17 20.4 16.23 20.49 15.18C20.54 14.56 20.32 13.99 19.91 13.59C19.59 13.26 19.17 13.05 18.69 13.01M3.31 13.01C3.37 13 3.43 13 3.5 13H18.5C18.57 13 18.63 13 18.69 13.01M3.31 13.01L2.83 4.3C2.65 2.53 4.04 1 5.81 1H16.19C17.96 1 19.35 2.53 19.17 4.3L18.69 13.01M6.99 1V6M11 1V3" stroke="#535753" stroke-width="1.5" stroke-linecap="round" stroke-linejoin="round"/>
</svg>
